# xmcd CD database file
#
# Track frame offsets:
#	150
#	15063
#	29505
#	53874
#	95754
#	116667
#	148570
#	179065
#	206626
#	231872
#	254488
#	288515
#	318342
#
# Disc length: 4501 seconds
#
# Revision: 0
# Processed by: cddbd v1.5.2PL0 Copyright (c) Steve Scherf et al.
# Submitted via: CDex 1.51
#
DISCID=be11930d
DTITLE=Robert Glasper - ArtScience
DYEAR=2016
DGENRE=Jazz
TTITLE0=This Is Not Fear
TTITLE1=Thinkin Bout You
TTITLE2=Day To Day
TTITLE3=No One Like You
TTITLE4=You And Me
TTITLE5=Tell Me A Bedtime Story
TTITLE6=Find You
TTITLE7=In My Mind
TTITLE8=Hurry Slowly
TTITLE9=Written In Stone
TTITLE10=Let's Fall In Love
TTITLE11=Human
TTITLE12=Summer Breeze
EXTD=YEAR: 2016
EXTT0=
EXTT1=
EXTT2=
EXTT3=
EXTT4=
EXTT5=
EXTT6=
EXTT7=
EXTT8=
EXTT9=
EXTT10=
EXTT11=
EXTT12=
PLAYORDER=
